{"title":"18+ Bachelors 2015 Movies HDRip XviD ESubs AAC New +Sample☻rDX☻","uid":15579400,"size":740931882,"categoryP":"video","categoryS":"movies","magnet":"?xt=urn:btih:40e0648c85f52b20c9c8b87e18f7662ab52c2c2f&amp;dn=18%2B+Bachelors+2015+Movies+HDRip+XviD+ESubs+AAC+New+%2BSample%E2%98%BBrDX%E2%98%BB&amp;tr=udp%3A%2F%2Ftracker.leechers-paradise.org%3A6969&amp;tr=udp%3A%2F%2Fzer0day.ch%3A1337&amp;tr=udp%3A%2F%2Fopen.demonii.com%3A1337&amp;tr=udp%3A%2F%2Ftracker.coppersurfer.tk%3A6969&amp;tr=udp%3A%2F%2Fexodus.desync.com%3A6969","seeders":0,"leechers":3,"uploader":"basicssom","files":3,"time":1471385197,"description":"----------------------------------------------------------------\r\n18+ Bachelors 2015 English Movies HDRip XviD ESubs AAC New Source with Sample ☻rDX☻\r\n\r\nSCREEN SHOTS &amp; POSTER:\r\n  \nhttp://postimage.co.nr/2016/8/television/index.htm  \nhttp://postimage.co.nr/2016/8/television/1.html  \nhttp://postimage.co.nr/2016/8/television/2.html  \nhttp://postimage.co.nr/2016/8/television/3.html  \nhttp://postimage.co.nr/2016/8/television/4.html  \nhttp://postimage.co.nr/2016/8/television/5.html  \nhttp://postimage.co.nr/2016/8/television/6.html  \nhttp://postimage.co.nr/2016/8/television/7.html  \nhttp://postimage.co.nr/2016/8/television/8.html  \nhttp://postimage.co.nr/2016/8/television/9.html  \nhttp://postimage.co.nr/2016/8/television/10.html\r\n\r\nFormat                                   : Matroska\r\nFormat version                           : Version 4 / Version 2\r\nFile size                                : 694 MiB\r\nDuration                                 : 1 h 26 min\r\nOverall bit rate                         : 1 115 kb/s\r\nMovie name                               : 18+ Bachelors 2015 UNCENSORED English Movies HDRip XviD ESubs AAC New Source ☻rDX☻\r\n\r\nVideo\r\nID                                       : 1\r\nFormat                                   : MPEG-4 Visual\r\nFormat profile                           : Advanced   \r\nFormat settings, BVOP                    : 2\r\nFormat settings, QPel                    : No\r\nFormat settings, GMC                     : No warppoints\r\nFormat settings, Matrix                  : Default (H.263)\r\nMuxing mode                              : Packed bitstream\r\nCodec ID                                 : V_MS/VFW/FOURCC / XVID\r\nCodec ID/Hint                            : XviD\r\nDuration                                 : 1 h 26 min\r\nBit rate                                 : 965 kb/s\r\nWidth                                    : 640 pixels\r\nHeight                                   : 352 pixels\r\nDisplay aspect ratio                     : 16:9\r\nFrame rate mode                          : Constant\r\nFrame rate                               : 23.976 (24000/1001) FPS\r\nColor space                              : YUV\r\nChroma subsampling                       : 4:2:0\r\nBit depth                                : 8 bits\r\nScan type                                : Progressive\r\nCompression mode                         : Lossy\r\nBits/(Pixel*Frame)                       : 0.179\r\nStream size                              : 600 MiB (87%)\r\nTitle                                    : ☻rDX☻\r\nWriting library                          : XviD 64\r\nDefault                                  : Yes\r\nForced                                   : No\r\n\r\nAudio\r\nID                                       : 2\r\nFormat                                   : MPEG Audio\r\nFormat version                           : Version 1\r\nFormat profile                           : Layer 3\r\nMode                                     : Joint stereo\r\nMode extension                           : MS Stereo\r\nCodec ID                                 : A_MPEG/L3\r\nCodec ID/Hint                            : MP3\r\nDuration                                 : 1 h 26 min\r\nBit rate mode                            : Constant\r\nBit rate                                 : 128 kb/s\r\nChannel(s)                               : 2 channels\r\nSampling rate                            : 48.0 kHz\r\nCompression mode                         : Lossy\r\nStream size                              : 79.6 MiB (11%)\r\nTitle                                    : ☻rDX☻\r\nWriting library                          : LAME3.99r\r\nEncoding settings                        : -m j -V 4 -q 3 -lowpass 17 -b 128\r\nDefault                                  : Yes\r\nForced                                   : No\r\n\r\nIMDB \nhttp://www.imdb.com/title/tt3505754/","torrent":{"xt":"urn:btih:40e0648c85f52b20c9c8b87e18f7662ab52c2c2f","amp;dn":"18%2B+Bachelors+2015+Movies+HDRip+XviD+ESubs+AAC+New+%2BSample%E2%98%BBrDX%E2%98%BB","amp;tr":["udp%3A%2F%2Ftracker.leechers-paradise.org%3A6969","udp%3A%2F%2Fzer0day.ch%3A1337","udp%3A%2F%2Fopen.demonii.com%3A1337","udp%3A%2F%2Ftracker.coppersurfer.tk%3A6969","udp%3A%2F%2Fexodus.desync.com%3A6969"],"infoHash":"40e0648c85f52b20c9c8b87e18f7662ab52c2c2f","infoHashBuffer":{"type":"Buffer","data":[64,224,100,140,133,245,43,32,201,200,184,126,24,247,102,42,181,44,44,47]},"announce":[],"urlList":[]}}